<?xml version="1.0" encoding="utf-8"?>
<!-- Generator: Adobe Illustrator 17.1.0, SVG Export Plug-In . SVG Version: 6.00 Build 0)  -->
<!DOCTYPE svg PUBLIC "-//W3C//DTD SVG 1.1//EN" "http://www.w3.org/Graphics/SVG/1.1/DTD/svg11.dtd">
<svg version="1.1" id="Layer_1" xmlns="http://www.w3.org/2000/svg" xmlns:xlink="http://www.w3.org/1999/xlink" x="0px" y="0px"
	 viewBox="0 0 24 24" enable-background="new 0 0 24 24" xml:space="preserve">
<g>
	<path d="M9.3,15.8H5.5l-0.7,2.5H1.6L5.8,5.5h1.6v0l0,0H9l4.2,12.8h-3.1L9.3,15.8z M6.2,13.5h2.4l-1.2-4H7.4L6.2,13.5z"/>
	<path d="M19.4,18.3c-0.1-0.2-0.2-0.4-0.3-0.7c-0.1-0.3-0.1-0.5-0.2-0.8c-0.3,0.5-0.6,0.9-1,1.2c-0.4,0.3-0.9,0.5-1.5,0.5
		c-1,0-1.8-0.3-2.3-0.8c-0.6-0.5-0.8-1.2-0.8-2.1c0-0.9,0.4-1.7,1.1-2.2c0.7-0.5,1.8-0.8,3.2-0.8h1.2V12c0-0.4-0.1-0.7-0.3-0.9
		s-0.5-0.3-0.9-0.3c-0.3,0-0.6,0.1-0.8,0.2c-0.2,0.2-0.3,0.4-0.3,0.8l-2.9,0l0-0.1c0-0.9,0.3-1.6,1.1-2.2c0.8-0.6,1.8-0.9,3-0.9
		c1.2,0,2.1,0.3,2.9,0.9c0.7,0.6,1.1,1.4,1.1,2.5v3.6c0,0.5,0,1,0.1,1.4c0.1,0.4,0.2,0.9,0.4,1.3L19.4,18.3z M17.3,16.4
		c0.4,0,0.7-0.1,1-0.3c0.3-0.2,0.5-0.4,0.6-0.6v-1.3h-1.2c-0.5,0-0.8,0.1-1,0.3s-0.3,0.5-0.3,0.9c0,0.3,0.1,0.5,0.3,0.7
		C16.8,16.3,17,16.4,17.3,16.4z"/>
</g>
</svg>
