<?xml version="1.0" encoding="utf-8"?>
<!-- Generator: Adobe Illustrator 17.1.0, SVG Export Plug-In . SVG Version: 6.00 Build 0)  -->
<!DOCTYPE svg PUBLIC "-//W3C//DTD SVG 1.1//EN" "http://www.w3.org/Graphics/SVG/1.1/DTD/svg11.dtd">
<svg version="1.1" id="Layer_1" xmlns="http://www.w3.org/2000/svg" xmlns:xlink="http://www.w3.org/1999/xlink" x="0px" y="0px"
	 viewBox="0 0 24 24" enable-background="new 0 0 24 24" xml:space="preserve">
<path fill="#F15C22" d="M0.7,11.7c0-5.3,4.3-10.2,9.9-10.9c4-0.5,7.1,1.1,9.2,3.1c2,1.9,3.1,4.3,3.4,7.1c0.2,2.8-0.4,5.3-2,7.6
	c-1.6,2.3-4.9,4.7-8.9,4.7H6.8V12.4c0-2.4,0.8-4.5,3.8-5.4c2.5-0.8,5.5,0.7,6.4,3.3c0.9,2.9-0.4,4.8-2,6s-4.1,1.2-5.7,0V20
	c1.1,0.5,2.4,0.7,3.4,0.6c3.6-0.5,6.3-2.5,7.5-5.6c1.2-3.2,0.4-7-2.2-9.3c-3.1-2.5-6.4-3.1-10-1.4C5.5,5.6,3.8,8.2,3.3,11v12.3H0.7
	L0.7,11.7z"/>
</svg>
